<svg width="32" height="32" viewBox="0 0 32 32" fill="none" xmlns="http://www.w3.org/2000/svg">
<path d="M9.11621 10.1162C9.60437 9.62806 10.3956 9.62806 10.8838 10.1162L22.75 21.9824V13C22.75 12.3096 23.3096 11.75 24 11.75C24.6904 11.75 25.25 12.3096 25.25 13V25C25.25 25.6904 24.6904 26.25 24 26.25H12C11.3096 26.25 10.75 25.6904 10.75 25C10.75 24.3096 11.3096 23.75 12 23.75H20.9824L9.11621 11.8838C8.62806 11.3956 8.62806 10.6044 9.11621 10.1162ZM26 3.75C26.6904 3.75 27.25 4.30964 27.25 5C27.25 5.69036 26.6904 6.25 26 6.25H6C5.30964 6.25 4.75 5.69036 4.75 5C4.75 4.30964 5.30964 3.75 6 3.75H26Z" fill="currentColor"/>
</svg>
