<svg width="32" height="32" viewBox="0 0 32 32" fill="none" xmlns="http://www.w3.org/2000/svg">
<path d="M19.75 8.5C19.75 6.42893 18.0711 4.75 16 4.75C13.9289 4.75 12.25 6.42893 12.25 8.5C12.25 10.5711 13.9289 12.25 16 12.25C18.0711 12.25 19.75 10.5711 19.75 8.5ZM22.25 8.5C22.25 11.9518 19.4518 14.75 16 14.75C12.5482 14.75 9.75 11.9518 9.75 8.5C9.75 5.04822 12.5482 2.25 16 2.25C19.4518 2.25 22.25 5.04822 22.25 8.5Z" fill="currentColor"/>
<path d="M27.25 21.5C27.25 19.4289 25.5711 17.75 23.5 17.75C21.4289 17.75 19.75 19.4289 19.75 21.5C19.75 23.5711 21.4289 25.25 23.5 25.25C25.5711 25.25 27.25 23.5711 27.25 21.5ZM29.75 21.5C29.75 24.9518 26.9518 27.75 23.5 27.75C20.0482 27.75 17.25 24.9518 17.25 21.5C17.25 18.0482 20.0482 15.25 23.5 15.25C26.9518 15.25 29.75 18.0482 29.75 21.5Z" fill="currentColor"/>
<path d="M12.25 21.5C12.25 19.4289 10.5711 17.75 8.5 17.75C6.42893 17.75 4.75 19.4289 4.75 21.5C4.75 23.5711 6.42893 25.25 8.5 25.25C10.5711 25.25 12.25 23.5711 12.25 21.5ZM14.75 21.5C14.75 24.9518 11.9518 27.75 8.5 27.75C5.04822 27.75 2.25 24.9518 2.25 21.5C2.25 18.0482 5.04822 15.25 8.5 15.25C11.9518 15.25 14.75 18.0482 14.75 21.5Z" fill="currentColor"/>
</svg>
