<svg width="32" height="32" viewBox="0 0 32 32" fill="none" xmlns="http://www.w3.org/2000/svg">
<path d="M12.6873 25.4798C12.9753 24.8524 13.7171 24.5776 14.3445 24.8655C14.9719 25.1535 15.2476 25.8953 14.9597 26.5227C14.693 27.1038 14.4045 27.6727 14.0955 28.2298C13.7606 28.8333 12.9999 29.0518 12.3963 28.7171C11.7926 28.3821 11.575 27.6205 11.9099 27.0169C12.188 26.5157 12.447 26.0033 12.6873 25.4798ZM21.9998 14.7512C22.6898 14.7506 23.2497 15.3092 23.2507 15.9993C23.2559 20.0724 22.4628 24.1074 20.9158 27.8753C20.6536 28.5139 19.9226 28.8191 19.2839 28.5569C18.6457 28.2945 18.3411 27.5645 18.6033 26.9261C20.0262 23.4605 20.7555 19.7495 20.7507 16.0032C20.7499 15.3128 21.3094 14.7521 21.9998 14.7512ZM13.4138 9.22878C14.7854 8.70483 16.2839 8.60914 17.7107 8.95535C19.1374 9.30154 20.4252 10.0732 21.4041 11.1673C21.8643 11.6818 21.8209 12.4726 21.3064 12.9329C20.7919 13.3931 20.001 13.3487 19.5408 12.8343C18.8994 12.1174 18.0556 11.6118 17.1209 11.385C16.1861 11.1583 15.204 11.2205 14.3054 11.5637C13.4069 11.9071 12.6341 12.5156 12.0886 13.3079C11.5432 14.1002 11.2508 15.0393 11.2507 16.0012C11.2555 19.2626 10.4279 22.4711 8.84645 25.3235C8.5117 25.9273 7.751 26.1456 7.14723 25.8108C6.54359 25.476 6.32526 24.7153 6.65993 24.1116C8.03543 21.6307 8.75514 18.8399 8.75075 16.0032V16.0012C8.75076 14.533 9.1965 13.0992 10.0291 11.8899C10.8617 10.6806 12.0422 9.75275 13.4138 9.22878ZM11.5857 3.50515C13.5842 2.80084 15.7223 2.58596 17.8211 2.8782C19.92 3.17052 21.919 3.96107 23.6492 5.18484C25.3793 6.4086 26.7907 8.02968 27.7654 9.9114C28.7401 11.7931 29.2492 13.8811 29.2507 16.0003C29.2525 18.785 28.943 21.5617 28.3279 24.2776C28.1753 24.9507 27.506 25.3725 26.8328 25.22C26.1595 25.0675 25.7369 24.3982 25.8894 23.7249C26.4633 21.1908 26.7523 18.6005 26.7507 16.0022C26.7495 14.2828 26.3364 12.5886 25.5457 11.0618C24.7547 9.53487 23.6088 8.21887 22.2048 7.22585C20.801 6.23301 19.1793 5.59096 17.4763 5.35378C15.7734 5.11666 14.0384 5.29113 12.4168 5.86257C11.7658 6.09202 11.0516 5.7508 10.822 5.09988C10.5926 4.44878 10.9346 3.73463 11.5857 3.50515ZM15.9988 14.7512C16.689 14.7509 17.2493 15.31 17.2498 16.0003C17.2513 18.1292 16.9835 20.2498 16.4539 22.3118C16.2821 22.9804 15.601 23.3839 14.9324 23.2122C14.2637 23.0404 13.8612 22.3584 14.033 21.6897C14.5103 19.8316 14.7512 17.9206 14.7498 16.0022C14.7493 15.3119 15.3084 14.7518 15.9988 14.7512ZM7.16871 6.12429C7.68379 5.66465 8.47371 5.70981 8.93336 6.22488C9.39294 6.73995 9.34782 7.52989 8.83278 7.98953C7.70455 8.99645 6.80267 10.2311 6.18532 11.6116C5.56801 12.992 5.24911 14.4872 5.25075 15.9993C5.2534 17.9054 4.84407 19.7901 4.04957 21.5227C3.76176 22.1501 3.01883 22.4257 2.39137 22.138C1.76399 21.8501 1.48841 21.1072 1.77614 20.4798C2.42013 19.0753 2.75287 17.5483 2.75075 16.0032C2.7487 14.1384 3.14182 12.2934 3.90309 10.5911C4.66447 8.88855 5.77722 7.36609 7.16871 6.12429Z" fill="currentColor"/>
</svg>
