<svg width="32" height="32" viewBox="0 0 32 32" fill="none" xmlns="http://www.w3.org/2000/svg">
<path d="M13.0943 13.2763C14.8805 12.604 16.8445 12.5712 18.6519 13.1845C20.4593 13.798 21.9984 15.0197 23.0064 16.6406C24.0143 18.2615 24.4293 20.1817 24.1802 22.0742C23.9311 23.9665 23.0332 25.7137 21.6402 27.0185C20.2472 28.3232 18.445 29.1045 16.5405 29.2294C14.6359 29.3543 12.7464 28.8149 11.1948 27.7031C9.64377 26.5915 8.52592 24.9769 8.03176 23.1337C7.74985 22.087 7.67739 20.9946 7.81887 19.9199C7.96039 18.8452 8.31282 17.8091 8.85598 16.871C9.81034 15.2186 11.3083 13.9486 13.0943 13.2763ZM17.8491 15.5517C16.5895 15.1241 15.2201 15.1467 13.9751 15.6152C12.7302 16.0838 11.6862 16.9701 11.021 18.122L9.93801 17.497L11.02 18.124C10.6419 18.7769 10.3959 19.4979 10.2974 20.246C10.2112 20.9007 10.2396 21.565 10.3794 22.2089L10.4458 22.4843C10.7901 23.7692 11.5697 24.8959 12.6509 25.6708C13.7323 26.4457 15.049 26.8223 16.3765 26.7353C17.7039 26.6483 18.9602 26.1036 19.9312 25.1943C20.9021 24.2849 21.528 23.0669 21.7017 21.748C21.8753 20.429 21.5858 19.0906 20.8833 17.9609C20.1808 16.8312 19.1088 15.9793 17.8491 15.5517Z" fill="currentColor"/>
<path d="M16.6489 3.37345C16.9941 2.77582 17.7582 2.57051 18.356 2.91544C18.9538 3.26058 19.159 4.02559 18.814 4.62345L11.021 18.122C10.6759 18.7199 9.91086 18.9247 9.31299 18.5795C8.71534 18.2344 8.5101 17.4702 8.85498 16.8725L16.6489 3.37345Z" fill="currentColor"/>
</svg>
