<svg width="32" height="32" viewBox="0 0 32 32" fill="none" xmlns="http://www.w3.org/2000/svg">
<path d="M20.9524 6.09717C21.3289 5.51861 22.1033 5.35548 22.6819 5.73193C24.8951 7.17236 26.5842 9.28897 27.4963 11.7671C28.4085 14.2453 28.4956 16.9523 27.7444 19.4839C26.9931 22.0154 25.4436 24.2365 23.3274 25.8159C21.2111 27.3954 18.6409 28.2485 16.0002 28.2485C13.3595 28.2485 10.7894 27.3954 8.67308 25.8159C6.55684 24.2365 5.00737 22.0154 4.25609 19.4839C3.50483 16.9523 3.59198 14.2453 4.50413 11.7671C5.4163 9.28895 7.10535 7.17236 9.31859 5.73193C9.89718 5.35544 10.6715 5.51859 11.0481 6.09717C11.4246 6.67574 11.2604 7.45008 10.6819 7.82666C8.92044 8.97304 7.57686 10.6582 6.85081 12.6304C6.12485 14.6027 6.05569 16.7571 6.65355 18.772C7.25145 20.7868 8.48397 22.5549 10.1682 23.812C11.8526 25.0692 13.8984 25.7485 16.0002 25.7485C18.102 25.7485 20.1479 25.0691 21.8323 23.812C23.5165 22.5549 24.749 20.7868 25.3469 18.772C25.9448 16.7571 25.8756 14.6027 25.1496 12.6304C24.4236 10.6582 23.08 8.97303 21.3186 7.82666C20.7401 7.45007 20.5759 6.67573 20.9524 6.09717ZM14.7493 15.5005V6.00049C14.7493 5.31013 15.3089 4.75049 15.9993 4.75049C16.6896 4.75049 17.2493 5.31013 17.2493 6.00049V15.5005C17.2493 16.1908 16.6896 16.7505 15.9993 16.7505C15.3089 16.7505 14.7493 16.1908 14.7493 15.5005Z" fill="currentColor"/>
</svg>
