<svg width="32" height="32" viewBox="0 0 32 32" fill="none" xmlns="http://www.w3.org/2000/svg">
<path d="M27 7.25C27.6904 7.25 28.25 7.80964 28.25 8.5C28.25 9.19036 27.6904 9.75 27 9.75H5C4.30964 9.75 3.75 9.19036 3.75 8.5C3.75 7.80964 4.30964 7.25 5 7.25H27Z" fill="currentColor"/>
<path d="M24 12.25C24.6904 12.25 25.25 12.8096 25.25 13.5C25.25 14.1904 24.6904 14.75 24 14.75H8C7.30964 14.75 6.75 14.1904 6.75 13.5C6.75 12.8096 7.30964 12.25 8 12.25H24Z" fill="currentColor"/>
<path d="M26.9994 17.25C27.6898 17.25 28.2494 17.8096 28.2494 18.5C28.2494 19.1904 27.6898 19.75 26.9994 19.75H5.00038C4.31003 19.75 3.75038 19.1904 3.75038 18.5C3.75038 17.8096 4.31003 17.25 5.00038 17.25H26.9994Z" fill="currentColor"/>
<path d="M23.9994 22.25C24.6898 22.25 25.2494 22.8096 25.2494 23.5C25.2494 24.1904 24.6898 24.75 23.9994 24.75H8.00038C7.31003 24.75 6.75038 24.1904 6.75038 23.5C6.75038 22.8096 7.31003 22.25 8.00038 22.25H23.9994Z" fill="currentColor"/>
</svg>
