<svg width="32" height="32" viewBox="0 0 32 32" fill="none" xmlns="http://www.w3.org/2000/svg">
<path d="M25.7498 7C25.7498 6.58579 25.414 6.25 24.9998 6.25C24.5856 6.25 24.2498 6.58579 24.2498 7C24.2498 7.41421 24.5856 7.75 24.9998 7.75C25.414 7.75 25.7498 7.41421 25.7498 7ZM28.2498 7C28.2498 8.79493 26.7947 10.25 24.9998 10.25C23.2049 10.25 21.7498 8.79493 21.7498 7C21.7498 5.20507 23.2049 3.75 24.9998 3.75C26.7947 3.75 28.2498 5.20507 28.2498 7Z" fill="currentColor"/>
<path d="M23.7498 5V3.5C23.7498 2.80964 24.3094 2.25 24.9998 2.25C25.6902 2.25 26.2498 2.80964 26.2498 3.5V5C26.2498 5.69036 25.6902 6.25 24.9998 6.25C24.3094 6.25 23.7498 5.69036 23.7498 5Z" fill="currentColor"/>
<path d="M20.8857 4.625C21.2308 4.0272 21.9959 3.82198 22.5937 4.16699L23.8925 4.91699C24.4904 5.26215 24.6956 6.02715 24.3505 6.625C24.0054 7.22285 23.2404 7.42815 22.6425 7.08301L21.3437 6.33301C20.7459 5.98787 20.5407 5.22284 20.8857 4.625Z" fill="currentColor"/>
<path d="M22.6425 6.91699C23.2404 6.57186 24.0054 6.77715 24.3505 7.375C24.6956 7.97285 24.4904 8.73785 23.8925 9.08301L22.5937 9.83301C21.9959 10.178 21.2308 9.9728 20.8857 9.375C20.5407 8.77716 20.7459 8.01213 21.3437 7.66699L22.6425 6.91699Z" fill="currentColor"/>
<path d="M23.7498 10.5V9C23.7498 8.30964 24.3094 7.75 24.9998 7.75C25.6902 7.75 26.2498 8.30964 26.2498 9V10.5C26.2498 11.1904 25.6902 11.75 24.9998 11.75C24.3094 11.75 23.7498 11.1904 23.7498 10.5Z" fill="currentColor"/>
<path d="M25.6488 7.375C25.994 6.7772 26.759 6.57198 27.3569 6.91699L28.6557 7.66699C29.2535 8.01215 29.4588 8.77715 29.1137 9.375C28.7685 9.97285 28.0035 10.1781 27.4057 9.83301L26.1069 9.08301C25.5091 8.73787 25.3038 7.97284 25.6488 7.375Z" fill="currentColor"/>
<path d="M27.4057 4.16699C28.0035 3.82185 28.7685 4.02715 29.1137 4.625C29.4588 5.22285 29.2535 5.98785 28.6557 6.33301L27.3569 7.08301C26.759 7.42802 25.994 7.2228 25.6488 6.625C25.3038 6.02716 25.5091 5.26213 26.1069 4.91699L27.4057 4.16699Z" fill="currentColor"/>
<path d="M16.0004 18.75C18.6773 18.7501 21.3069 19.4548 23.6254 20.793C25.9439 22.1312 27.8693 24.056 29.2084 26.374C29.5537 26.9718 29.3491 27.7357 28.7514 28.0811C28.1536 28.4264 27.3897 28.2218 27.0443 27.624C25.9247 25.6859 24.3139 24.0769 22.3754 22.958C20.437 21.8393 18.2384 21.2501 16.0004 21.25C13.7621 21.25 11.563 21.8392 9.6244 22.958C7.6858 24.0769 6.07517 25.6859 4.95546 27.624C4.61013 28.2217 3.84615 28.4263 3.24843 28.0811C2.65066 27.7357 2.44604 26.9708 2.79139 26.373C4.13053 24.0553 6.05607 22.131 8.3744 20.793C10.693 19.4548 13.3233 18.75 16.0004 18.75Z" fill="currentColor"/>
<path d="M12.2663 3.54101C13.8394 2.84507 15.5752 2.60127 17.279 2.83788C17.9628 2.93286 18.4404 3.56425 18.3454 4.24804C18.2504 4.9318 17.619 5.40939 16.9353 5.31445C15.692 5.14177 14.4249 5.3193 13.2771 5.82714C12.1296 6.33492 11.1465 7.15266 10.4382 8.18847C9.72977 9.22461 9.32396 10.4385 9.2673 11.6924C9.2107 12.946 9.50504 14.1905 10.1169 15.2861C10.729 16.3819 11.6348 17.2862 12.7321 17.8955C13.8294 18.5047 15.0752 18.7952 16.3288 18.7353C17.5824 18.6755 18.7946 18.2675 19.8288 17.5566C20.8631 16.8457 21.6784 15.8599 22.1833 14.7109C22.461 14.079 23.1988 13.7917 23.8308 14.0693C24.4628 14.3471 24.7501 15.0848 24.4724 15.7168C23.7803 17.2916 22.6624 18.6418 21.2448 19.6162C19.8272 20.5907 18.1662 21.1504 16.448 21.2324C14.7297 21.3144 13.0222 20.9161 11.5183 20.081C10.0143 19.246 8.77316 18.0077 7.93429 16.5059C7.09542 15.004 6.69256 13.2976 6.77023 11.5791C6.84791 9.86061 7.40283 8.19739 8.37374 6.77734C9.34466 5.35735 10.6932 4.23699 12.2663 3.54101Z" fill="currentColor"/>
</svg>
